<svg width="98" height="33" viewBox="0 0 98 33" fill="none" xmlns="http://www.w3.org/2000/svg">
<path d="M33.7863 16.7698C33.7863 19.4269 32.7521 21.0532 30.3262 21.0136C28.0989 20.974 26.9456 19.3476 26.9456 16.7307V6.69611H21.458V17.1264C21.458 22.1638 24.5997 25.7334 30.3262 25.7731C35.5759 25.8127 39.2744 21.9657 39.2744 17.1666V6.69611H33.7863V16.7698Z" fill="#FF00BD"/>
<path d="M87.0924 6.25809C81.1667 6.25809 76.9937 10.4623 76.9937 16.0148C76.9937 21.5673 81.1695 25.7715 87.0924 25.7715C93.0154 25.7715 97.1911 21.5673 97.1911 16.0148C97.1911 10.4623 93.0176 6.25809 87.0924 6.25809ZM87.0924 21.0517C84.3481 21.0517 82.4018 18.9895 82.4018 16.0148C82.4018 13.0401 84.3503 10.9774 87.0924 10.9774C89.8346 10.9774 91.7831 13.0401 91.7831 16.0148C91.7831 18.9895 89.8362 21.0517 87.0924 21.0517Z" fill="#FF00BD"/>
<path d="M52.966 6.25803C47.0403 6.25803 42.8672 10.4622 42.8672 16.0147C42.8672 16.0885 42.8759 16.1594 42.877 16.2348H42.8672V32.007H48.2753V24.75C49.7432 25.434 51.3458 25.7826 52.966 25.7703C58.8917 25.7703 63.0646 21.5661 63.0646 16.0136C63.0646 10.4611 58.8917 6.25803 52.966 6.25803ZM52.966 21.0516C50.2217 21.0516 48.2753 18.9894 48.2753 16.0147C48.2753 13.0401 50.2239 10.9773 52.966 10.9773C55.7081 10.9773 57.6567 13.0401 57.6567 16.0147C57.6567 18.9894 55.7103 21.0516 52.966 21.0516Z" fill="#FF00BD"/>
<path d="M0.868164 11.4105H11.6821L0.868164 19.8617V25.335H18.3821V20.619H7.54218L18.3821 12.1463V6.69446H0.868164V11.4105Z" fill="#FF00BD"/>
<path d="M75.369 25.335H73.5377C71.5639 25.3328 69.6715 24.5498 68.2758 23.1579C66.88 21.7659 66.095 19.8787 66.0928 17.9101V0.00537109H71.6112V17.9101C71.6125 18.4193 71.8159 18.9072 72.1769 19.2672C72.5379 19.6272 73.0272 19.8301 73.5377 19.8314H75.369V25.335Z" fill="#FF00BD"/>
</svg>
