
<svg width="24" height="24" viewBox="0 0 24 24" fill="none" xmlns="http://www.w3.org/2000/svg">
<path d="M18.4818 4.66042L20.5503 4.12776L20.5658 4.15048L20.618 16.6407L20.5503 16.7086L20.1241 16.7268L18.506 16.4749L18.4818 16.4112V4.66042M6.51813 17.5763L6.52575 17.5768L11.9861 19.1635L12 19.1742L12.0238 19.1931L12.0161 23.9475L12 23.9677L6.51813 21.3046V17.5763" fill="#3A3A3A"/>
<path d="M18.4818 16.4112L12.009 17.9613L8.75912 17.1769L6.51813 17.5763L12 19.1742L20.4606 16.8836L20.5503 16.7086L18.4818 16.4112" fill="#666666"/>
<path d="M17.4819 6.39138L17.4291 6.33126L12.0589 4.77086L12 4.79358L11.9461 4.76605L3.49582 7.20273L3.44966 7.25916L3.51749 7.29632L5.44993 7.57967L5.51824 7.55647L11.991 6.00642L15.2409 6.79088L17.4819 6.39138" fill="#434343"/>
<path d="M5.51824 19.3073L3.44966 19.8067L3.44605 19.7947L3.36458 7.35114L3.44966 7.25916L5.51824 7.55647V19.3073" fill="black"/>
<path d="M8.31091 14.4805L12 14.9132L12.0277 14.8719L12.0427 9.1017L12 9.05442L8.31091 9.48722V14.4805" fill="#3A3A3A"/>
<path d="M15.6891 14.4805L12 14.9132V9.05442L15.6891 9.48722V14.4805M17.4819 6.39138L12 4.79358V0L17.4819 2.66304V6.39138" fill="black"/>
<path d="M12 0L1.72575 4.95997V19.0077L3.44966 19.8067V7.25916L12 4.79358V0Z" fill="#3A3A3A"/>
<path d="M20.5503 4.12776V16.7086L12 19.1742V23.9677L22.2742 19.0077V4.95997L20.5503 4.12776Z" fill="black"/>
</svg>