<svg width="37" height="37" viewBox="0 0 37 37" fill="none" xmlns="http://www.w3.org/2000/svg">
<path d="M9.91973 13.9999L20.4417 13.9999L9.23173 25.2319C9.12618 25.3379 9.05432 25.4727 9.0252 25.6194C8.99609 25.7661 9.01101 25.9181 9.06809 26.0563C9.12518 26.1945 9.22188 26.3128 9.34602 26.3962C9.47015 26.4796 9.61619 26.5244 9.76573 26.5249L27.5737 26.525L27.5737 33.978L8.03973 33.9779C6.60553 33.9955 5.19585 33.6053 3.97473 32.8529C2.75289 32.1 1.76954 31.0161 1.13873 29.7269C0.486946 28.3473 0.277485 26.7998 0.539017 25.2965C0.80055 23.7932 1.52029 22.4075 2.59973 21.3289L9.91973 14.001L9.91973 13.9999Z" fill="#FF00BD"/>
<path d="M27.0837 22.9786H16.5617L27.7717 11.7466C27.8772 11.6406 27.9491 11.5058 27.9782 11.3591C28.0073 11.2125 27.9924 11.0604 27.9353 10.9222C27.8782 10.784 27.7815 10.6657 27.6574 10.5824C27.5333 10.499 27.3872 10.4542 27.2377 10.4536H9.42969V3.00056H28.9637C30.3979 2.98305 31.8076 3.37318 33.0287 4.12556C34.2505 4.87852 35.2339 5.96242 35.8647 7.25156C36.5165 8.63125 36.7259 10.1787 36.4644 11.682C36.2029 13.1853 35.4831 14.5711 34.4037 15.6496L27.0837 22.9776V22.9786Z" fill="#FF00BD"/>
</svg>
