<svg width="147" height="40" viewBox="0 0 147 40" fill="none" xmlns="http://www.w3.org/2000/svg">
<path d="M27.1424 23.9783H16.6185L27.8314 12.746C27.9371 12.64 28.0091 12.505 28.0382 12.3581C28.0674 12.2112 28.0525 12.0589 27.9953 11.9205C27.9381 11.7821 27.8411 11.6638 27.7168 11.5806C27.5925 11.4973 27.4464 11.4529 27.2968 11.4529H9.48849V4.00056H29.0218C30.4557 3.98308 31.8652 4.37324 33.0867 5.12584C34.3082 5.87843 35.2917 6.96257 35.9229 8.25246C36.5747 9.63201 36.7842 11.1799 36.5225 12.6835C36.2609 14.187 35.541 15.5726 34.4618 16.6499L27.1424 23.9783Z" fill="#FF00BD"/>
<path d="M9.48857 15.0423H20.013L8.82257 26.252C8.71508 26.3598 8.6419 26.4972 8.61226 26.6466C8.58262 26.7961 8.59791 26.951 8.6561 27.0918C8.71429 27.2326 8.81275 27.3529 8.93919 27.4376C9.06562 27.5223 9.21433 27.5676 9.36644 27.5678H27.1245V35.0201H7.61019C6.17626 35.0374 4.7669 34.6472 3.54541 33.8946C2.32392 33.142 1.34039 32.0579 0.709041 30.7681C0.0573297 29.3885 -0.152047 27.8406 0.109677 26.337C0.3714 24.8334 1.09145 23.4479 2.17081 22.3707L9.48857 15.0423Z" fill="#FF00BD"/>
<path d="M82.7863 20.7698C82.7863 23.4269 81.7521 25.0532 79.3262 25.0136C77.0989 24.974 75.9456 23.3476 75.9456 20.7307V10.6961H70.458V21.1264C70.458 26.1638 73.5997 29.7334 79.3262 29.7731C84.5759 29.8127 88.2744 25.9657 88.2744 21.1666V10.6961H82.7863V20.7698Z" fill="#FF00BD"/>
<path d="M136.092 10.2581C130.167 10.2581 125.994 14.4623 125.994 20.0148C125.994 25.5673 130.169 29.7715 136.092 29.7715C142.015 29.7715 146.191 25.5673 146.191 20.0148C146.191 14.4623 142.018 10.2581 136.092 10.2581ZM136.092 25.0517C133.348 25.0517 131.402 22.9895 131.402 20.0148C131.402 17.0401 133.35 14.9774 136.092 14.9774C138.835 14.9774 140.783 17.0401 140.783 20.0148C140.783 22.9895 138.836 25.0517 136.092 25.0517Z" fill="#FF00BD"/>
<path d="M101.966 10.258C96.0403 10.258 91.8672 14.4622 91.8672 20.0147C91.8672 20.0885 91.8759 20.1594 91.877 20.2348H91.8672V36.007H97.2753V28.75C98.7432 29.434 100.346 29.7826 101.966 29.7703C107.892 29.7703 112.065 25.5661 112.065 20.0136C112.065 14.4611 107.892 10.258 101.966 10.258ZM101.966 25.0516C99.2217 25.0516 97.2753 22.9894 97.2753 20.0147C97.2753 17.0401 99.2239 14.9773 101.966 14.9773C104.708 14.9773 106.657 17.0401 106.657 20.0147C106.657 22.9894 104.71 25.0516 101.966 25.0516Z" fill="#FF00BD"/>
<path d="M49.8682 15.4105H60.6821L49.8682 23.8617V29.335H67.3821V24.619H56.5422L67.3821 16.1463V10.6945H49.8682V15.4105Z" fill="#FF00BD"/>
<path d="M124.369 29.335H122.538C120.564 29.3328 118.671 28.5498 117.276 27.1579C115.88 25.7659 115.095 23.8787 115.093 21.9101V4.00537H120.611V21.9101C120.613 22.4193 120.816 22.9072 121.177 23.2672C121.538 23.6272 122.027 23.8301 122.538 23.8314H124.369V29.335Z" fill="#FF00BD"/>
</svg>
