
<svg xmlns="http://www.w3.org/2000/svg" fill="none" viewBox="0 0 37 32" aria-hidden="true">
  <path fill="#FF00BD" d="M27.142 19.978H16.62L27.83 8.746a.758.758 0 00-.534-1.293H9.488V0h19.534a7.573 7.573 0 014.065 1.125 7.591 7.591 0 012.836 3.126 7.402 7.402 0 01-1.461 8.398l-7.32 7.328z"/>
  <path fill="#FF00BD" d="M9.489 11.042h10.524l-11.19 11.21a.772.772 0 00.543 1.316h17.759v7.452H7.61a7.574 7.574 0 01-4.065-1.125A7.593 7.593 0 01.71 26.768a7.403 7.403 0 011.462-8.397l7.318-7.329z"/>
</svg>
