<svg width="150" height="34" viewBox="0 0 150 34" fill="none" xmlns="http://www.w3.org/2000/svg">
<g clip-path="url(#clip0_65_266)">
<path d="M27.6959 20.4316H16.9592L28.398 9.19958C28.5057 9.09364 28.579 8.95884 28.6087 8.81216C28.6384 8.66547 28.6232 8.51345 28.5649 8.37523C28.5067 8.23701 28.408 8.11876 28.2814 8.03536C28.1547 7.95197 28.0057 7.90716 27.8531 7.90658H9.68164V0.453578H29.6143C31.0778 0.435898 32.5163 0.826043 33.7623 1.57858C35.0087 2.33191 36.012 3.41571 36.6561 4.70458C37.3215 6.08421 37.5354 7.63169 37.2685 9.13507C37.0017 10.6385 36.267 12.0242 35.1653 13.1026L27.6959 20.4306V20.4316Z" fill="white"/>
<path d="M9.68263 11.4959H20.4214L9.00304 22.7059C8.8937 22.8138 8.81931 22.9509 8.78919 23.1C8.75908 23.2492 8.77459 23.4038 8.83377 23.5443C8.89295 23.6849 8.99317 23.8052 9.12186 23.8902C9.25054 23.9751 9.40196 24.0209 9.55712 24.0219H27.6785V31.4739H7.76528C6.3018 31.4915 4.8633 31.1014 3.61732 30.3489C2.37111 29.5951 1.36814 28.511 0.724466 27.2219C0.0594431 25.8423 -0.154164 24.2949 0.112896 22.7917C0.379956 21.2886 1.11463 19.903 2.2163 18.8249L9.68263 11.4959ZM84.4755 17.2239C84.4755 19.8809 83.4204 21.5069 80.9449 21.4679C78.6724 21.4279 77.4959 19.8019 77.4959 17.1849V7.14986H71.8959V17.5799C71.8959 22.6179 75.102 26.1869 80.9449 26.2269C86.302 26.2669 90.0755 22.4199 90.0755 17.6209V7.15086H84.4755V17.2239ZM138.869 6.71186C132.823 6.71186 128.565 10.9159 128.565 16.4689C128.565 22.0209 132.825 26.2249 138.869 26.2249C144.913 26.2249 149.174 22.0209 149.174 16.4689C149.174 10.9169 144.916 6.71186 138.869 6.71186ZM138.869 21.5059C136.069 21.5059 134.084 19.4429 134.084 16.4689C134.084 13.4939 136.071 11.4309 138.869 11.4309C141.667 11.4309 143.656 13.4939 143.656 16.4689C143.656 19.4439 141.669 21.5059 138.869 21.5059ZM104.047 6.71186C98 6.71186 93.7418 10.9159 93.7418 16.4689C93.7418 16.5419 93.751 16.6129 93.752 16.6889H93.7418V32.4609H99.2602V25.2039C100.759 25.8883 102.394 26.2367 104.047 26.2239C110.094 26.2239 114.352 22.0199 114.352 16.4679C114.352 10.9159 110.094 6.71186 104.047 6.71186ZM104.047 21.5059C101.247 21.5059 99.2612 19.4429 99.2612 16.4689C99.2612 13.4939 101.249 11.4309 104.047 11.4309C106.845 11.4309 108.834 13.4939 108.834 16.4689C108.834 19.4439 106.847 21.5059 104.047 21.5059ZM50.8857 11.8639H61.9204L50.8857 20.3159V25.7889H68.7571V21.0729H57.6959L68.7571 12.5999V7.14786H50.8857V11.8639ZM126.907 25.7889H125.039C123.026 25.7875 121.095 25.0048 119.669 23.6119C118.964 22.9235 118.405 22.1057 118.022 21.2052C117.64 20.3047 117.443 19.3392 117.442 18.3639V0.458862H123.072V18.3639C123.074 18.8739 123.282 19.3625 123.651 19.7226C124.019 20.0827 124.518 20.2849 125.039 20.2849H126.907V25.7889Z" fill="white"/>
</g>
<defs>
<clipPath id="clip0_65_266">
<rect width="150" height="33" fill="white" transform="translate(0 0.453613)"/>
</clipPath>
</defs>
</svg>
