<svg width="446" height="100" viewBox="0 0 446 100" fill="none" xmlns="http://www.w3.org/2000/svg">
<g clip-path="url(#clip0_65_250)">
<path d="M82.2484 60.5394H50.3636L84.3333 26.503C84.6531 26.182 84.8709 25.7735 84.9591 25.329C85.0474 24.8845 85.0021 24.4238 84.8292 24.005C84.6562 23.5861 84.3631 23.2278 83.987 22.9751C83.6108 22.7224 83.1683 22.5866 82.7151 22.5848H28.7515V-2.65237e-05H87.9454C92.2915 -0.0536044 96.5634 1.12865 100.264 3.40906C103.965 5.69189 106.945 8.97614 108.858 12.8818C110.834 17.0625 111.469 21.7518 110.676 26.3075C109.884 30.8632 107.702 35.0625 104.43 38.3303L82.2484 60.5363V60.5394Z" fill="#FF00BD"/>
<path d="M28.7545 33.4606H60.6454L26.7363 67.4303C26.4116 67.7572 26.1907 68.1728 26.1013 68.6248C26.0118 69.0768 26.0579 69.5452 26.2336 69.9711C26.4094 70.3971 26.707 70.7616 27.0892 71.019C27.4713 71.2765 27.921 71.4153 28.3818 71.4182H82.1969V94H23.0606C18.7145 94.0536 14.4426 92.8713 10.7424 90.5909C7.0415 88.3068 4.06298 85.0215 2.15148 81.1151C0.176557 76.9345 -0.45779 72.2456 0.335297 67.6905C1.12838 63.1354 3.31013 58.9368 6.58178 55.6697L28.7545 33.4606ZM250.867 50.8182C250.867 58.8697 247.733 63.797 240.382 63.6788C233.633 63.5576 230.139 58.6303 230.139 50.7V20.2909H213.509V51.897C213.509 67.1636 223.03 77.9788 240.382 78.1C256.291 78.2212 267.497 66.5636 267.497 52.0212V20.2939H250.867V50.8182ZM412.4 18.9636C394.445 18.9636 381.8 31.703 381.8 48.5303C381.8 65.3545 394.451 78.0939 412.4 78.0939C430.348 78.0939 443.003 65.3545 443.003 48.5303C443.003 31.706 430.358 18.9636 412.4 18.9636ZM412.4 63.7939C404.085 63.7939 398.188 57.5424 398.188 48.5303C398.188 39.5151 404.091 33.2636 412.4 33.2636C420.709 33.2636 426.615 39.5151 426.615 48.5303C426.615 57.5454 420.715 63.7939 412.4 63.7939ZM308.988 18.9636C291.03 18.9636 278.385 31.703 278.385 48.5303C278.385 48.7515 278.412 48.9667 278.415 49.197H278.385V96.9909H294.773V75C299.222 77.0739 304.079 78.1298 308.988 78.0909C326.945 78.0909 339.591 65.3515 339.591 48.5273C339.591 31.703 326.945 18.9636 308.988 18.9636ZM308.988 63.7939C300.673 63.7939 294.776 57.5424 294.776 48.5303C294.776 39.5151 300.679 33.2636 308.988 33.2636C317.297 33.2636 323.203 39.5151 323.203 48.5303C323.203 57.5454 317.303 63.7939 308.988 63.7939ZM151.115 34.5757H183.885L151.115 60.1879V76.7727H204.188V62.4818H171.339L204.188 36.806V20.2848H151.115V34.5757ZM376.876 76.7727H371.327C365.349 76.7687 359.616 74.3967 355.382 70.1757C353.288 68.0898 351.626 65.6116 350.491 62.8828C349.356 60.154 348.77 57.2282 348.767 54.2727V0.0151367H365.488V54.2727C365.493 55.8183 366.11 57.2989 367.205 58.39C368.299 59.4812 369.782 60.0939 371.327 60.0939H376.876V76.7727Z" fill="#FF00BD"/>
</g>
<defs>
<clipPath id="clip0_65_250">
<rect width="445.455" height="100" fill="white"/>
</clipPath>
</defs>
</svg>
