<svg xmlns="http://www.w3.org/2000/svg" fill="none" viewBox="0 0 461 371" aria-hidden="true">
  <g clip-path="url(#clip0_1_2)">
    <path fill="#737373"
      d="M292.27 102.15h14.043l40.024-40.024 1.966-16.992a179.897 179.897 0 00-247.919 9.361 179.898 179.898 0 00-44.742 78.409 21.766 21.766 0 0114.043-.842l80.046-13.201s4.073-6.741 6.179-6.319a99.85 99.85 0 01136.641-10.392h-.281z" />
    <path fill="#7D7D7D"
      d="M403.352 132.904a180.308 180.308 0 00-54.347-87.63l-56.173 56.173a99.85 99.85 0 0136.653 79.204v9.971a49.987 49.987 0 0135.351 14.643 49.993 49.993 0 01-35.351 85.345h-99.988l-9.971 10.111v59.965l9.971 9.971h99.988a130.044 130.044 0 00125.197-91.454 130.036 130.036 0 00-51.33-146.299z" />
    <path fill="#7D7D7D"
      d="M129.369 370.095h99.988v-80.047h-99.988a49.702 49.702 0 01-20.644-4.494l-14.043 4.354-40.304 40.023-3.511 14.043a129.337 129.337 0 0078.502 26.121z" />
    <path fill="#BABABA"
      d="M129.369 110.435A130.037 130.037 0 006.905 198.972a130.042 130.042 0 0043.962 144.581l57.998-57.999a49.986 49.986 0 01-28.597-36.583 49.996 49.996 0 0158.157-58.158 49.992 49.992 0 0136.584 28.598l57.999-57.999a129.9 129.9 0 00-103.639-50.977z" />
  </g>
  <defs>
    <clipPath id="clip0_1_2">
      <path fill="#fff" d="M0 0h461v371H0z" />
    </clipPath>
  </defs>
</svg>