<svg xmlns="http://www.w3.org/2000/svg" xmlns:xlink="http://www.w3.org/1999/xlink" width="1920"
  height="1920" viewBox="0 0 1920 1920">
  <defs>
    <clipPath id="clip-aserto-brandmark-black">
      <rect width="1920" height="1920" />
    </clipPath>
  </defs>
  <g id="aserto-brandmark-black" clip-path="url(#clip-aserto-brandmark-black)">
    <g id="Group_1" data-name="Group 1" transform="translate(-726.339 -78.674)">
      <path id="Subtraction_117" data-name="Subtraction 117"
        d="M-3090.007-2080a970.472,970.472,0,0,1-176.378-16.161,954.252,954.252,0,0,1-165.182-46.385L-2898-3188.8l443.033,868.764a966.145,966.145,0,0,1-136.363,100.525,958.642,958.642,0,0,1-153.324,75.5,954.561,954.561,0,0,1-167.195,47.514A967.534,967.534,0,0,1-3090.007-2080Zm766.874-382.4L-3090.007-3999.99a967.335,967.335,0,0,1,193.476,19.485,954.582,954.582,0,0,1,180.192,55.951,959.763,959.763,0,0,1,163.071,88.52,967.8,967.8,0,0,1,142.1,117.22,970.2,970.2,0,0,1,117.23,142.083,961.458,961.458,0,0,1,88.52,163.073,954.228,954.228,0,0,1,55.93,180.213A967.029,967.029,0,0,1-2130-3040a958.609,958.609,0,0,1-51.094,309.821,956.61,956.61,0,0,1-142.031,267.742Zm-1533.75,0a956.1,956.1,0,0,1-142.02-267.731A958.636,958.636,0,0,1-4050-3040a968.177,968.177,0,0,1,19.57-193.881,956.538,956.538,0,0,1,55.855-179.8,960.546,960.546,0,0,1,88.53-163.072A968.915,968.915,0,0,1-3768.8-3718.835a968.162,968.162,0,0,1,142.073-117.209,960.286,960.286,0,0,1,163.062-88.562,955.242,955.242,0,0,1,180.212-55.91A967.893,967.893,0,0,1-3090.007-4000Z"
        transform="translate(4776.336 4078.675)" />
    </g>
  </g>
</svg>
  