<svg width="360" height="360" viewBox="0 0 360 360" fill="none" xmlns="http://www.w3.org/2000/svg">
<path d="M165 336C124.98 332.185 87.2365 321.83 54.3238 297.799C33.9672 282.936 18.0073 264.391 13.9109 238.32C10.792 218.47 15.7695 200.413 27.5082 184.176C45.5662 159.198 70.7894 144.303 98.9517 133.653C117.347 126.697 136.509 122.408 156 120V152C133.5 156 111.625 163.497 92.3486 177.946C78.9376 187.998 68.5133 200.219 64.9999 217.111C61.9276 231.882 65.0365 245.48 73.5991 257.888C87.2161 277.619 107.124 288.374 129 295.804C139.15 299.251 149.928 300.851 161.102 303.54C162.846 303.865 165 304.492 165.056 304.436L165 336Z" fill="black"/>
<path d="M276.498 170.508C261.117 162.58 251.023 157 228.771 152.881C225.829 152.337 224 152 224 152V119.5C231.354 120.657 238.479 121.861 245.189 123.285C267.745 128.071 289.559 135.041 309.578 146.764C313.089 148.82 314.5 149.5 314.5 149.5L340.22 134.574C340.22 134.574 344.847 182.806 347.193 207.266C347.193 207.266 281.685 192.894 250 186L276.498 170.508Z" fill="black"/>
<path d="M164.778 308.343C164.835 308.307 164.953 308.503 164.895 308.599C164.837 308.696 164.72 308.379 164.778 308.343Z" fill="black"/>
<path d="M165 48L215 24V312L165 336V48Z" fill="black"/>
</svg>
