<svg width="24" height="24" viewBox="0 0 394 456" fill="none" xmlns="http://www.w3.org/2000/svg">
  <path d="M393.46 345.92V112.24L196.88 0.889999L0.309998 114.98V345.92L198.26 455.89L393.46 345.92ZM357.72 324.55L198.01 414.52L36.05 324.55V135.61L196.88 42.26L357.71 133.36V324.56L357.72 324.55Z" fill="#4B4B4B"/>
  <path fill-rule="evenodd" clip-rule="evenodd" d="M237.43 107.02L196.69 130.54L155.96 107.02L196.69 83.5L237.43 107.02Z" fill="#CBCBCB"/>
  <path fill-rule="evenodd" clip-rule="evenodd" d="M278.16 130.54L237.43 154.06L196.69 130.54L237.43 107.02L278.16 130.54Z" fill="#CBCBCB"/>
  <path fill-rule="evenodd" clip-rule="evenodd" d="M318.9 154.06L278.16 177.58V218.31L318.9 194.79V154.06Z" fill="#4B4B4B"/>
  <path fill-rule="evenodd" clip-rule="evenodd" d="M318.9 154.06L278.16 177.58L237.43 154.06L278.16 130.54L318.9 154.06Z" fill="#CBCBCB"/>
  <path fill-rule="evenodd" clip-rule="evenodd" d="M196.69 130.54L155.96 154.06L115.22 130.54L155.96 107.02L196.69 130.54Z" fill="#CBCBCB"/>
  <path fill-rule="evenodd" clip-rule="evenodd" d="M237.43 154.06L196.69 177.58L155.96 154.06L196.69 130.54L237.43 154.06Z" fill="#CBCBCB"/>
  <path fill-rule="evenodd" clip-rule="evenodd" d="M278.16 177.58L237.43 201.09V241.83L278.16 218.31V177.58Z" fill="#4B4B4B"/>
  <path fill-rule="evenodd" clip-rule="evenodd" d="M278.16 177.58L237.43 201.09L196.69 177.58L237.43 154.06L278.16 177.58Z" fill="#CBCBCB"/>
  <path fill-rule="evenodd" clip-rule="evenodd" d="M74.49 154.06L115.22 177.58V218.31L74.49 194.79V154.06Z" fill="#909090"/>
  <path fill-rule="evenodd" clip-rule="evenodd" d="M155.96 154.06L115.22 177.58L74.49 154.06L115.22 130.54L155.96 154.06Z" fill="#CBCBCB"/>
  <path fill-rule="evenodd" clip-rule="evenodd" d="M115.22 177.58L155.96 201.09V241.83L115.22 218.31V177.58Z" fill="#909090"/>
  <path fill-rule="evenodd" clip-rule="evenodd" d="M196.69 177.58L155.96 201.09L115.22 177.58L155.96 154.06L196.69 177.58Z" fill="#CBCBCB"/>
  <path fill-rule="evenodd" clip-rule="evenodd" d="M155.96 201.09L196.69 224.61V265.35L155.96 241.83V201.09Z" fill="#909090"/>
  <path fill-rule="evenodd" clip-rule="evenodd" d="M237.43 201.09L196.69 224.61V265.35L237.43 241.83V201.09Z" fill="#4B4B4B"/>
  <path fill-rule="evenodd" clip-rule="evenodd" d="M237.43 201.09L196.69 224.61L155.96 201.09L196.69 177.58L237.43 201.09Z" fill="#CBCBCB"/>
  <path fill-rule="evenodd" clip-rule="evenodd" d="M318.87 209.29L278.14 232.8V273.54L318.87 250.02V209.29Z" fill="#4B4B4B"/>
  <path fill-rule="evenodd" clip-rule="evenodd" d="M278.14 232.8L237.4 256.32V297.06L278.14 273.54V232.8Z" fill="#4B4B4B"/>
  <path fill-rule="evenodd" clip-rule="evenodd" d="M74.47 209.29L115.2 232.8V273.54L74.47 250.02V209.29Z" fill="#909090"/>
  <path fill-rule="evenodd" clip-rule="evenodd" d="M115.2 232.8L155.94 256.32V297.06L115.2 273.54V232.8Z" fill="#909090"/>
  <path fill-rule="evenodd" clip-rule="evenodd" d="M155.94 256.32L196.67 279.84V320.58L155.94 297.06V256.32Z" fill="#909090"/>
  <path fill-rule="evenodd" clip-rule="evenodd" d="M237.4 256.32L196.67 279.84V320.58L237.4 297.06V256.32Z" fill="#4B4B4B"/>
  <path fill-rule="evenodd" clip-rule="evenodd" d="M318.87 266.67L278.14 290.19V330.92L318.87 307.4V266.67Z" fill="#4B4B4B"/>
  <path fill-rule="evenodd" clip-rule="evenodd" d="M278.14 290.19L237.4 313.7V354.44L278.14 330.92V290.19Z" fill="#4B4B4B"/>
  <path fill-rule="evenodd" clip-rule="evenodd" d="M74.47 266.67L115.2 290.19V330.92L74.47 307.4V266.67Z" fill="#909090"/>
  <path fill-rule="evenodd" clip-rule="evenodd" d="M115.2 290.19L155.94 313.7V354.44L115.2 330.92V290.19Z" fill="#909090"/>
  <path fill-rule="evenodd" clip-rule="evenodd" d="M155.94 313.7L196.67 337.22V377.96L155.94 354.44V313.7Z" fill="#909090"/>
  <path fill-rule="evenodd" clip-rule="evenodd" d="M237.4 313.7L196.67 337.22V377.96L237.4 354.44V313.7Z" fill="#4B4B4B"/>
  <path fill-rule="evenodd" clip-rule="evenodd" d="M257.64 155.04L196.32 190.45L134.99 155.04L196.32 119.64L257.64 155.04Z" fill="#CBCBCB"/>
  </svg>
  