<svg width="65" height="65" viewBox="0 0 65 65" fill="none" xmlns="http://www.w3.org/2000/svg">
  <path d="M30 15.0109V12.5C30 11.1193 31.1193 10 32.5 10C33.8807 10 35 11.1193 35 12.5V15" stroke="black" stroke-width="2" stroke-miterlimit="2" stroke-linecap="round" stroke-linejoin="round"/>
  <path d="M43.4505 55H20.5495C15.8473 55 12 51.1527 12 46.4505V23.5495C12 18.8473 15.8473 15 20.5495 15H43.4505C48.1527 15 52 18.8473 52 23.5495V46.4505C52 51.1527 48.1527 55 43.4505 55Z" stroke="black" stroke-width="2" stroke-miterlimit="2" stroke-linecap="round" stroke-linejoin="round"/>
  <path d="M40.8346 30.836C42.3997 30.836 43.6684 29.5673 43.6684 28.0022C43.6684 26.4371 42.3997 25.1684 40.8346 25.1684C39.2695 25.1684 38.0008 26.4371 38.0008 28.0022C38.0008 29.5673 39.2695 30.836 40.8346 30.836Z" stroke="black" stroke-width="2" stroke-miterlimit="2" stroke-linecap="round" stroke-linejoin="round"/>
  <path d="M40.5 46.5H23.5C21.3 46.5 19.5 44.7 19.5 42.5C19.5 40.3 21.3 38.5 23.5 38.5H40.5C42.7 38.5 44.5 40.3 44.5 42.5C44.5 44.7 42.7 46.5 40.5 46.5Z" stroke="black" stroke-width="2" stroke-miterlimit="2"/>
  <path d="M9.5 40C8.1193 40 7 38.8807 7 37.5V29.5C7 28.1193 8.1193 27 9.5 27C10.8807 27 12 28.1193 12 29.5V37.5C12 38.8807 10.8807 40 9.5 40Z" stroke="black" stroke-width="2" stroke-miterlimit="2" stroke-linecap="round" stroke-linejoin="round"/>
  <path d="M54.5 40C55.8807 40 57 38.8807 57 37.5V29.5C57 28.1193 55.8807 27 54.5 27C53.1193 27 52 28.1193 52 29.5V37.5C52 38.8807 53.1193 40 54.5 40Z" stroke="black" stroke-width="2" stroke-miterlimit="2" stroke-linecap="round" stroke-linejoin="round"/>
  <path d="M24 39V46" stroke="black" stroke-width="2" stroke-miterlimit="2" stroke-linecap="round" stroke-linejoin="round"/>
  <path d="M29 39V46" stroke="black" stroke-width="2" stroke-miterlimit="2" stroke-linecap="round" stroke-linejoin="round"/>
  <path d="M34 39V46" stroke="black" stroke-width="2" stroke-miterlimit="2" stroke-linecap="round" stroke-linejoin="round"/>
  <path d="M39 39V46" stroke="black" stroke-width="2" stroke-miterlimit="2" stroke-linecap="round" stroke-linejoin="round"/>
  <line x1="27.253" y1="24.5355" x2="24.4246" y2="27.364" stroke="black" stroke-width="1.5"/>
  <line x1="23.364" y1="28.4246" x2="20.5355" y2="31.253" stroke="black" stroke-width="1.5"/>
  <line x1="24.4255" y1="28.4255" x2="27.2493" y2="31.2585" stroke="black" stroke-width="1.5"/>
  <line x1="20.3588" y1="24.3588" x2="24.6014" y2="28.6014" stroke="black" stroke-width="1.5"/>
  </svg>
  