<?xml version="1.0" encoding="UTF-8"?>
<svg width="85px" height="85px" viewBox="0 0 85 85" version="1.1" xmlns="http://www.w3.org/2000/svg"
    xmlns:xlink="http://www.w3.org/1999/xlink">
    <title>curity</title>
    <g id="Page-1" stroke="none" stroke-width="1" fill="none" fill-rule="evenodd">
        <g id="curity">
            <path
                d="M64.9,47.04 L64.34,47.61 C61.4893145,50.6399241 57.5664451,52.4344663 53.41,52.61 C50.628549,52.7069222 47.9325328,51.6403093 45.9702577,49.6666477 C44.0079826,47.6929861 42.9569863,44.9908437 43.07,42.21 C43.07,36.21 47.31,31.82 53.16,31.82 C56.9205028,31.9615567 60.5224765,33.3713312 63.38,35.82 L63.94,36.31 L69.55,30.45 L68.92,29.91 C64.3160405,26.1041451 58.5333361,24.0151608 52.56,24 C46.4841409,23.8708655 40.734778,26.7436766 37.19,31.68 L26.84,31.68 L26.24,36.77 L34.74,36.77 C34.4657679,37.7056733 34.2684448,38.6621888 34.15,39.63 L21.45,39.63 L20.84,44.71 L34.15,44.71 C34.2646935,45.6768078 34.4552817,46.6330923 34.72,47.57 L15.61,47.57 L15,52.66 L37.14,52.66 C40.43,57.4 46.04,60.34 52.81,60.34 C59.2081465,60.2766863 65.346888,57.8019057 70,53.41 L70.59,52.85 L64.9,47.04 Z"
                id="Path" fill="#000000" fill-rule="nonzero"></path>
            <rect id="Rectangle" x="0" y="0" width="85" height="85"></rect>
        </g>
    </g>
</svg>