<?xml version="1.0" encoding="UTF-8"?>
<svg width="84px" height="77px" viewBox="0 0 84 77" version="1.1" xmlns="http://www.w3.org/2000/svg" xmlns:xlink="http://www.w3.org/1999/xlink">
    <title>moesif-logo</title>
    <g id="Page-1" stroke="none" stroke-width="1" fill="none" fill-rule="evenodd">
        <g id="moesif-logo" transform="translate(0.6777, 0.2198)" fill="#000000" fill-rule="nonzero">
            <path d="M75.4623341,29.5201545 L80.6923341,29.5201545 L80.6923341,76.7801545 L64.9423341,76.7801545 L64.9423341,29.5201545 L70.2223341,29.5201545 L70.2223341,19.3201545 C66.8736145,18.4101316 64.2518107,15.8035267 63.3223341,12.4601545 L58.1523341,12.4601545 L41.3223341,29.2901545 L24.4923341,12.4601545 L19.3223341,12.4601545 C18.3930622,15.7893635 15.7915432,18.3908825 12.4623341,19.3201545 L12.4623341,53.1401545 L17.7123341,53.1401545 L17.7123341,76.7801545 L1.95233411,76.7801545 L1.95233411,53.1401545 L7.20233411,53.1401545 L7.20233411,19.3201545 C2.6237935,18.046036 -0.389820178,13.6816112 0.0408614331,8.94864964 C0.471543044,4.21568805 4.22342859,0.466898125 8.95674405,0.0401233559 C13.6900595,-0.386651414 18.0519953,2.63056373 19.3223341,7.21015447 L26.6723341,7.21015447 L41.3223341,21.8701545 L55.9823341,7.21015447 L63.3223341,7.21015447 C64.5926729,2.63056373 68.9546087,-0.386651414 73.6879242,0.0401233559 C78.4212396,0.466898125 82.1731252,4.21568805 82.6038068,8.94864964 C83.0344884,13.6816112 80.0208747,18.046036 75.4423341,19.3201545 L75.4623341,29.5201545 Z" id="Path"></path>
        </g>
    </g>
</svg>