<svg width="36" height="36" viewBox="0 0 36 36" fill="none" xmlns="http://www.w3.org/2000/svg">
  <path fill-rule="evenodd" clip-rule="evenodd"
    d="M19.8 0.259994L19.06 9.37999C18.71 9.33999 18.36 9.31999 18 9.31999C17.55 9.31999 17.11 9.34999 16.68 9.41999L16.26 4.99999C16.25 4.85999 16.36 4.73999 16.5 4.73999H17.25L16.89 0.269995C16.88 0.129995 16.99 0.00999451 17.12 0.00999451H19.57C19.71 0.00999451 19.82 0.129995 19.8 0.269995V0.259994ZM13.62 0.709994C13.58 0.579994 13.44 0.499995 13.31 0.549995L11.01 1.38999C10.88 1.43999 10.82 1.58999 10.88 1.70999L12.75 5.78999L12.04 6.04999C11.91 6.09999 11.85 6.24999 11.91 6.36999L13.82 10.38C14.51 9.99999 15.26 9.70999 16.05 9.52999L13.63 0.709994H13.62ZM7.98001 3.24999L13.27 10.71C12.6 11.15 11.99 11.67 11.47 12.27L8.30001 9.14999C8.20001 9.04999 8.21001 8.88999 8.31001 8.79999L8.89001 8.31999L5.74001 5.12999C5.64001 5.02999 5.65001 4.86999 5.76001 4.77999L7.63001 3.20999C7.74001 3.11999 7.89001 3.13999 7.97001 3.24999H7.98001ZM3.54001 7.56999C3.43001 7.48999 3.27001 7.52999 3.20001 7.64999L1.98001 9.76999C1.91001 9.88999 1.96001 10.04 2.08001 10.1L6.14001 12.02L5.76001 12.67C5.69001 12.79 5.74001 12.95 5.87001 13L9.91001 14.85C10.2 14.1 10.59 13.4 11.07 12.77L3.54001 7.56999ZM0.550007 13.33C0.570007 13.19 0.710007 13.11 0.840007 13.14L9.69001 15.45C9.46001 16.2 9.33001 16.99 9.31001 17.81L4.88001 17.45C4.74001 17.44 4.64001 17.31 4.67001 17.17L4.80001 16.43L0.330007 16.01C0.190007 16 0.100007 15.87 0.120007 15.73L0.540007 13.32L0.550007 13.33ZM0.220007 19.31C0.0800068 19.32 -0.00999322 19.45 0.0100068 19.59L0.440007 22C0.460007 22.14 0.600007 22.22 0.730007 22.19L5.07001 21.06L5.20001 21.8C5.22001 21.94 5.36001 22.02 5.49001 21.99L9.77001 20.81C9.52001 20.07 9.36001 19.28 9.32001 18.47L0.210007 19.31H0.220007ZM1.64001 25.65C1.57001 25.53 1.62001 25.38 1.74001 25.32L10 21.4C10.31 22.14 10.73 22.83 11.23 23.45L7.61001 26.03C7.50001 26.11 7.34001 26.08 7.27001 25.96L6.89001 25.3L3.20001 27.85C3.09001 27.93 2.93001 27.89 2.86001 27.77L1.63001 25.65H1.64001ZM11.65 23.93L5.22001 30.44C5.12001 30.54 5.13001 30.7 5.24001 30.79L7.12001 32.36C7.23001 32.45 7.38001 32.43 7.46001 32.32L10.06 28.66L10.64 29.15C10.75 29.24 10.91 29.22 10.99 29.1L13.51 25.44C12.83 25.02 12.2 24.51 11.66 23.93H11.65ZM10.38 34.38C10.25 34.33 10.19 34.18 10.25 34.06L14.06 25.74C14.76 26.1 15.52 26.37 16.31 26.52L15.19 30.82C15.16 30.95 15.01 31.03 14.88 30.98L14.17 30.72L12.98 35.05C12.94 35.18 12.8 35.26 12.67 35.21L10.37 34.37L10.38 34.38ZM16.94 26.63L16.2 35.75C16.19 35.89 16.3 36.01 16.43 36.01H18.88C19.02 36.01 19.13 35.89 19.11 35.75L18.75 31.28H19.5C19.64 31.28 19.75 31.16 19.74 31.02L19.32 26.6C18.89 26.67 18.45 26.7 18 26.7C17.64 26.7 17.29 26.68 16.94 26.63ZM25.76 1.93999C25.82 1.80999 25.76 1.66999 25.63 1.61999L23.33 0.779994C23.2 0.729994 23.06 0.809995 23.02 0.939995L21.83 5.26999L21.12 5.00999C20.99 4.95999 20.85 5.03999 20.81 5.16999L19.69 9.46999C20.49 9.62999 21.24 9.89999 21.94 10.25L25.76 1.93999ZM30.78 5.56999L24.35 12.08C23.81 11.5 23.19 10.99 22.5 10.57L25.02 6.90999C25.1 6.79999 25.26 6.76999 25.37 6.85999L25.95 7.34999L28.55 3.68999C28.63 3.57999 28.79 3.55999 28.89 3.64999L30.77 5.21999C30.88 5.30999 30.88 5.46999 30.79 5.56999H30.78ZM34.26 10.69C34.39 10.63 34.43 10.48 34.36 10.36L33.13 8.23999C33.06 8.11999 32.9 8.08999 32.79 8.15999L29.1 10.71L28.72 10.06C28.65 9.93999 28.49 9.89999 28.38 9.98999L24.76 12.57C25.26 13.19 25.67 13.88 25.99 14.62L34.25 10.7L34.26 10.69ZM35.56 14.01L35.98 16.42C36 16.56 35.91 16.68 35.77 16.7L26.66 17.55C26.62 16.73 26.46 15.95 26.21 15.21L30.49 14.03C30.62 13.99 30.76 14.08 30.78 14.22L30.91 14.96L35.25 13.83C35.38 13.8 35.52 13.88 35.54 14.02L35.56 14.01ZM35.15 22.86C35.28 22.89 35.42 22.81 35.44 22.67L35.86 20.26C35.88 20.12 35.79 20 35.65 19.98L31.18 19.56L31.31 18.82C31.33 18.68 31.24 18.56 31.1 18.54L26.67 18.18C26.65 19 26.52 19.79 26.29 20.54L35.14 22.85L35.15 22.86ZM32.79 28.36C32.72 28.48 32.56 28.51 32.45 28.44L24.92 23.24C25.4 22.61 25.79 21.91 26.08 21.16L30.12 23.01C30.25 23.07 30.3 23.22 30.23 23.34L29.85 23.99L33.91 25.91C34.03 25.97 34.08 26.12 34.01 26.24L32.79 28.36ZM22.72 25.29L28.01 32.75C28.09 32.86 28.25 32.88 28.35 32.79L30.22 31.22C30.33 31.13 30.33 30.97 30.24 30.87L27.09 27.68L27.67 27.2C27.78 27.11 27.78 26.95 27.68 26.85L24.51 23.73C23.98 24.33 23.38 24.86 22.71 25.29H22.72ZM22.67 35.45C22.54 35.5 22.4 35.42 22.36 35.29L19.94 26.47C20.73 26.29 21.48 26 22.17 25.62L24.08 29.63C24.14 29.76 24.08 29.91 23.95 29.95L23.24 30.21L25.11 34.29C25.17 34.42 25.11 34.56 24.98 34.61L22.68 35.45H22.67Z"
    fill="#191919" />
</svg>
  