<svg xmlns="http://www.w3.org/2000/svg" width="24" height="24" viewBox="0 0 24 24" fill="none" stroke="currentColor" stroke-width="2" stroke-linecap="round" stroke-linejoin="round" class="feather feather-eye-off">
  <path d="M17.94 17.94A10.95 10.95 0 0 1 12 19c-5.05 0-9.28-3-11-7a11 11 0 0 1 5.17-5.68"></path>
  <path d="M1 1l22 22"></path>
  <path d="M9.88 9.88A3 3 0 0 0 12 15a3 3 0 0 0 2.12-.88"></path>
  <path d="M6.6 6.6A10.94 10.94 0 0 1 12 5c5.05 0 9.28 3 11 7a10.97 10.97 0 0 1-1.82 2.88"></path>
</svg>
