<?xml version="1.0" encoding="UTF-8"?>
<svg width="3179" height="2923" viewBox="0 0 3179 2923" fill="none"
  xmlns="http://www.w3.org/2000/svg">
  <mask id="mask0_36_9" style="mask-type:luminance" maskUnits="userSpaceOnUse" x="339" y="944"
    width="2499" height="1037">
    <path d="M339.332 944.778H2837.25V1980.91H339.332V944.778Z" fill="white" />
  </mask>
  <g mask="url(#mask0_36_9)">
    <path fill-rule="evenodd" clip-rule="evenodd"
      d="M600.062 1410.86C546.229 1390.94 516.727 1375.46 516.727 1351.12C516.727 1330.47 533.69 1318.67 563.928 1318.67C619.238 1318.67 676.019 1340.06 715.106 1359.23L737.23 1222.8C706.257 1208.05 642.833 1183.72 555.079 1183.72C493.132 1183.72 441.506 1199.94 404.636 1230.18C366.284 1261.89 346.373 1307.61 346.373 1362.92C346.373 1463.21 407.584 1505.99 507.142 1542.12C571.301 1564.98 592.689 1581.21 592.689 1606.28C592.689 1630.62 572.037 1644.63 534.426 1644.63C487.966 1644.63 411.273 1621.77 361.124 1592.27L339 1730.18C381.771 1754.51 461.417 1779.58 544.017 1779.58C609.647 1779.58 664.221 1764.1 701.096 1734.6C742.391 1702.15 763.779 1654.22 763.779 1592.27C763.779 1489.76 701.096 1446.99 600.062 1410.86ZM1123.94 1330.47L1146.06 1194.78H1029.27V1030.05L872.23 1055.89L849.553 1194.78L794.321 1203.74L773.646 1330.47H849.326V1596.7C849.326 1666.02 867.025 1713.95 903.159 1743.45C933.397 1767.79 976.904 1779.58 1038.12 1779.58C1085.31 1779.58 1114.07 1771.48 1133.98 1766.31V1622.5C1122.92 1625.46 1097.85 1630.62 1080.89 1630.62C1044.75 1630.62 1029.27 1612.18 1029.27 1570.15V1330.47H1123.94ZM1474.69 1186.85C1423.07 1186.85 1381.77 1213.95 1365.55 1262.63L1354.49 1194.78H1194.46V1768.52H1377.35V1396.11C1400.21 1368.08 1432.66 1357.95 1476.9 1357.95C1486.49 1357.95 1496.82 1357.95 1509.35 1360.16V1191.28C1496.82 1188.33 1485.75 1186.85 1474.69 1186.85ZM1645.79 1137.99C1698.88 1137.99 1741.65 1094.48 1741.65 1041.39C1741.65 987.549 1698.88 944.778 1645.79 944.778C1591.95 944.778 1549.18 987.549 1549.18 1041.39C1549.18 1094.48 1591.95 1137.99 1645.79 1137.99ZM1553.6 1194.78H1737.23V1768.52H1553.6V1194.78ZM2257.6 1246.4C2225.15 1204.36 2180.17 1183.72 2122.64 1183.72C2069.55 1183.72 2023.09 1205.84 1979.58 1252.3L1969.99 1194.78H1809.22V1980.91L1992.11 1950.68V1766.31C2020.13 1775.16 2048.89 1779.58 2074.71 1779.58C2120.43 1779.58 2186.8 1767.79 2238.42 1711.74C2287.83 1657.9 2312.91 1574.57 2312.91 1464.69C2312.91 1367.34 2294.47 1293.6 2257.6 1246.4ZM2105.68 1600.38C2090.93 1628.41 2068.07 1643.16 2041.52 1643.16C2023.09 1643.16 2006.86 1639.47 1992.11 1632.1V1359.23C2023.09 1326.79 2051.11 1323.1 2061.43 1323.1C2107.89 1323.1 2130.75 1373.25 2130.75 1471.33C2130.75 1527.37 2122.64 1570.88 2105.68 1600.38ZM2837.25 1476.49C2837.25 1385.04 2817.34 1312.77 2778.25 1261.89C2738.42 1210.26 2678.69 1183.72 2602.73 1183.72C2447.12 1183.72 2350.52 1298.76 2350.52 1483.12C2350.52 1586.37 2376.33 1663.8 2427.21 1713.21C2472.94 1757.46 2538.57 1779.58 2623.38 1779.58C2701.55 1779.58 2773.82 1761.15 2819.55 1730.91L2799.64 1605.55C2754.65 1629.88 2702.29 1643.16 2643.29 1643.16C2607.89 1643.16 2583.56 1635.78 2565.86 1620.29C2546.68 1604.07 2535.62 1577.52 2531.94 1539.91H2835.03C2835.77 1531.06 2837.25 1489.76 2837.25 1476.49ZM2530.46 1427.81C2535.62 1345.96 2557.74 1307.61 2599.78 1307.61C2641.08 1307.61 2662.47 1346.7 2665.42 1427.81H2530.46Z"
      fill="#1A1918" />
  </g>
</svg>
  