<svg width="24" height="24" viewBox="0 0 24 24" fill="none" xmlns="http://www.w3.org/2000/svg">
<circle cx="12.0001" cy="12" r="9" transform="rotate(-90 12.0001 12)" stroke="#808080" stroke-width="2"/>
<circle cx="12.0001" cy="12" r="5" transform="rotate(-90 12.0001 12)" stroke="#808080" stroke-width="2"/>
<path fill-rule="evenodd" clip-rule="evenodd" d="M17.0001 12L21.0001 12C21.0001 15.3312 19.1902 18.2398 16.5001 19.7959L16.5001 19.7944L14.5004 16.3309C15.9947 15.4663 17.0001 13.8505 17.0001 12ZM14.5005 7.66912L16.5001 4.20574L16.5017 4.20495C15.1775 3.4386 13.64 2.99997 12.0001 2.99997C10.3603 2.99997 8.82291 3.43851 7.49886 4.20471L7.50006 4.20595L9.49955 7.66917C10.2351 7.24357 11.0891 6.99997 12.0001 6.99997C12.911 6.99997 13.7649 7.24355 14.5005 7.66912ZM7.00006 12L3.00006 12C3.00006 15.331 4.80968 18.2393 7.49944 19.7956L7.50006 19.7942L9.49964 16.3308C8.00537 15.4662 7.00006 13.8505 7.00006 12Z" fill="#808080"/>
</svg>
