<svg xmlns="http://www.w3.org/2000/svg" fill="none" viewBox="0 0 150 150" aria-hidden="true">
  <g filter="url(#filter0_d_1_6)">
    <path fill="url(#paint0_linear_1_6)"
      d="M52.09 10.225h40.685L50.541 135.361a6.49 6.49 0 01-6.146 4.412H12.733a6.468 6.468 0 01-5.262-2.698 6.483 6.483 0 01-.876-5.848l39.349-116.59a6.487 6.487 0 016.147-4.412z" />
  </g>
  <g filter="url(#filter1_d_1_6)">
    <path fill="#525558"
      d="M111.211 94.158H46.695a2.985 2.985 0 00-2.039 5.17l41.456 38.694a6.513 6.513 0 004.447 1.751h36.532l-15.88-45.615z" />
  </g>
  <g filter="url(#filter2_d_1_6)">
    <path fill="url(#paint1_linear_1_6)"
      d="M52.09 10.225a6.434 6.434 0 00-6.16 4.498L6.644 131.12a6.471 6.471 0 003.12 7.932 6.463 6.463 0 002.986.721h32.48a6.94 6.94 0 005.328-4.531l7.834-23.089 27.985 26.102a6.617 6.617 0 004.165 1.518h36.395l-15.962-45.615-46.533.01 28.48-83.943H52.09z"
      shape-rendering="crispEdges" />
  </g>
  <g filter="url(#filter3_d_1_6)">
    <path fill="url(#paint2_linear_1_6)"
      d="M104.055 14.631a6.482 6.482 0 00-6.138-4.406H52.575a6.478 6.478 0 016.137 4.406l39.35 116.594a6.48 6.48 0 01-3.18 7.835 6.473 6.473 0 01-2.957.715h45.344a6.473 6.473 0 005.261-2.701 6.488 6.488 0 00.875-5.849l-39.35-116.594z" />
  </g>
  <defs>
    <filter id="filter0_d_1_6" width="94.519" height="137.548" x="2.255" y="10.225"
      color-interpolation-filters="sRGB" filterUnits="userSpaceOnUse">
      <feFlood flood-opacity="0" result="BackgroundImageFix" />
      <feColorMatrix in="SourceAlpha" result="hardAlpha"
        values="0 0 0 0 0 0 0 0 0 0 0 0 0 0 0 0 0 0 127 0" />
      <feOffset dy="4" />
      <feGaussianBlur stdDeviation="2" />
      <feComposite in2="hardAlpha" operator="out" />
      <feColorMatrix values="0 0 0 0 0 0 0 0 0 0 0 0 0 0 0 0 0 0 0.25 0" />
      <feBlend in2="BackgroundImageFix" result="effect1_dropShadow_1_6" />
      <feBlend in="SourceGraphic" in2="effect1_dropShadow_1_6" result="shape" />
    </filter>
    <filter id="filter1_d_1_6" width="91.385" height="53.616" x="39.706" y="94.158"
      color-interpolation-filters="sRGB" filterUnits="userSpaceOnUse">
      <feFlood flood-opacity="0" result="BackgroundImageFix" />
      <feColorMatrix in="SourceAlpha" result="hardAlpha"
        values="0 0 0 0 0 0 0 0 0 0 0 0 0 0 0 0 0 0 127 0" />
      <feOffset dy="4" />
      <feGaussianBlur stdDeviation="2" />
      <feComposite in2="hardAlpha" operator="out" />
      <feColorMatrix values="0 0 0 0 0 0 0 0 0 0 0 0 0 0 0 0 0 0 0.25 0" />
      <feBlend in2="BackgroundImageFix" result="effect1_dropShadow_1_6" />
      <feBlend in="SourceGraphic" in2="effect1_dropShadow_1_6" result="shape" />
    </filter>
    <filter id="filter2_d_1_6" width="128.674" height="137.548" x="2.264" y="10.225"
      color-interpolation-filters="sRGB" filterUnits="userSpaceOnUse">
      <feFlood flood-opacity="0" result="BackgroundImageFix" />
      <feColorMatrix in="SourceAlpha" result="hardAlpha"
        values="0 0 0 0 0 0 0 0 0 0 0 0 0 0 0 0 0 0 127 0" />
      <feOffset dy="4" />
      <feGaussianBlur stdDeviation="2" />
      <feComposite in2="hardAlpha" operator="out" />
      <feColorMatrix values="0 0 0 0 0 0 0 0 0 0 0 0 0 0 0 0 0 0 0.25 0" />
      <feBlend in2="BackgroundImageFix" result="effect1_dropShadow_1_6" />
      <feBlend in="SourceGraphic" in2="effect1_dropShadow_1_6" result="shape" />
    </filter>
    <filter id="filter3_d_1_6" width="99.17" height="137.55" x="48.575" y="10.225"
      color-interpolation-filters="sRGB" filterUnits="userSpaceOnUse">
      <feFlood flood-opacity="0" result="BackgroundImageFix" />
      <feColorMatrix in="SourceAlpha" result="hardAlpha"
        values="0 0 0 0 0 0 0 0 0 0 0 0 0 0 0 0 0 0 127 0" />
      <feOffset dy="4" />
      <feGaussianBlur stdDeviation="2" />
      <feComposite in2="hardAlpha" operator="out" />
      <feColorMatrix values="0 0 0 0 0 0 0 0 0 0 0 0 0 0 0 0 0 0 0.25 0" />
      <feBlend in2="BackgroundImageFix" result="effect1_dropShadow_1_6" />
      <feBlend in="SourceGraphic" in2="effect1_dropShadow_1_6" result="shape" />
    </filter>
    <linearGradient id="paint0_linear_1_6" x1="66.919" x2="24.667" y1="19.825" y2="144.647"
      gradientUnits="userSpaceOnUse">
      <stop stop-color="#27292C" />
      <stop offset="1" stop-color="#5E6062" />
    </linearGradient>
    <linearGradient id="paint1_linear_1_6" x1="80.117" x2="70.344" y1="77.995" y2="81.3"
      gradientUnits="userSpaceOnUse">
      <stop stop-opacity=".3" />
      <stop offset=".071" stop-opacity=".2" />
      <stop offset=".321" stop-opacity=".1" />
      <stop offset=".623" stop-opacity=".05" />
      <stop offset="1" stop-opacity="0" />
    </linearGradient>
    <linearGradient id="paint2_linear_1_6" x1="74.742" x2="121.122" y1="16.184" y2="139.748"
      gradientUnits="userSpaceOnUse">
      <stop stop-color="#9CA0A0" />
      <stop offset="1" stop-color="#3D4043" />
    </linearGradient>
  </defs>
</svg>