<svg width="24" height="23" viewBox="0 0 24 23" fill="none" xmlns="http://www.w3.org/2000/svg">
  <path d="M15 9H9L8 11L9 13H15L16 11L15 9Z" fill="#737373" />
  <path d="M16 11L15 9H9.51H9L8 11H16Z" fill="#9A9FA8" />
  <path d="M18 5H15L18.97 11L20.47 8.75L18 5Z" fill="#737373" />
  <path d="M21.95 11L20.47 8.75L18.97 11L15 17H18L21.95 11Z" fill="#9A9FA8" />
  <path d="M5.95 17H8.95L4.98 11L3.48 13.25L5.95 17Z" fill="#737373" />
  <path d="M2 11L3.48 13.25L4.98 11L8.95 5H5.95L2 11Z" fill="#9A9FA8" />
</svg>