<svg width="32" height="32" viewBox="0 0 32 32" fill="none" xmlns="http://www.w3.org/2000/svg">
  <path
    d="M25.488 4.2144L21.6472 8.05514C21.5265 8.1757 21.3688 8.25224 21.1994 8.27249C21.0301 8.29275 20.8588 8.25554 20.713 8.16683C19.2022 7.2554 17.4598 6.80085 15.6963 6.85805C13.9327 6.91526 12.2234 7.48179 10.7748 8.48922C9.88393 9.10936 9.11035 9.88295 8.4902 10.7739C7.48396 12.2233 6.91797 13.9327 6.86032 15.6963C6.80268 17.4599 7.25583 19.2025 8.16527 20.7146C8.25333 20.8601 8.29019 21.0308 8.26994 21.1997C8.2497 21.3685 8.17353 21.5257 8.05357 21.6462L4.21283 25.487C4.13549 25.5648 4.04224 25.6251 3.93946 25.6635C3.83668 25.702 3.72681 25.7178 3.61736 25.7098C3.50791 25.7019 3.40147 25.6703 3.30533 25.6174C3.20919 25.5645 3.12563 25.4914 3.06036 25.4032C0.982273 22.5468 -0.0916784 19.0828 0.00613613 15.5519C0.103951 12.0209 1.36803 8.62167 3.60106 5.88472C4.28277 5.04732 5.0483 4.28179 5.8857 3.60008C8.62244 1.36766 12.0212 0.10395 15.5516 0.00613776C19.082 -0.0916743 22.5455 0.98191 25.4017 3.05937C25.4905 3.12443 25.5641 3.20797 25.6175 3.30424C25.6709 3.4005 25.7029 3.5072 25.7111 3.61699C25.7193 3.72677 25.7036 3.83704 25.6651 3.94017C25.6265 4.0433 25.5661 4.13686 25.488 4.2144Z"
    fill="url(#paint0_linear_1251_8595)" />
  <path
    d="M25.4879 27.7715L21.6472 23.9308C21.5265 23.8102 21.3688 23.7336 21.1994 23.7134C21.03 23.6931 20.8587 23.7304 20.713 23.8191C19.2885 24.6784 17.6563 25.1325 15.9927 25.1325C14.329 25.1325 12.6969 24.6784 11.2723 23.8191C11.1266 23.7304 10.9553 23.6931 10.7859 23.7134C10.6166 23.7336 10.4589 23.8102 10.3382 23.9308L6.49743 27.7715C6.41689 27.8489 6.35437 27.9431 6.31431 28.0474C6.27425 28.1517 6.25763 28.2635 6.26562 28.375C6.27362 28.4864 6.30603 28.5947 6.36057 28.6922C6.41511 28.7898 6.49043 28.8741 6.5812 28.9392C9.31513 30.9284 12.6091 31.9999 15.9901 31.9999C19.3711 31.9999 22.6651 30.9284 25.3991 28.9392C25.4902 28.8745 25.5659 28.7905 25.6209 28.6932C25.6759 28.5959 25.7088 28.4876 25.7173 28.3762C25.7258 28.2647 25.7096 28.1528 25.67 28.0483C25.6303 27.9438 25.5682 27.8493 25.4879 27.7715Z"
    fill="#000" />
  <path
    d="M15.9931 20.5624C18.5167 20.5624 20.5624 18.5167 20.5624 15.9931C20.5624 13.4696 18.5167 11.4238 15.9931 11.4238C13.4696 11.4238 11.4238 13.4696 11.4238 15.9931C11.4238 18.5167 13.4696 20.5624 15.9931 20.5624Z"
    fill="#000" />
  <defs>
    <linearGradient id="paint0_linear_1251_8595" x1="21.8782" y1="-2.34508" x2="-10.513"
      y2="30.0487" gradientUnits="userSpaceOnUse">
      <stop stop-color="#808080" />
      <stop offset="0.5" stop-color="#A0A0A0" />
      <stop offset="1" stop-color="#C0C0C0" />
    </linearGradient>
  </defs>
</svg>
  