<?xml version="1.0" encoding="UTF-8"?>
<svg width="26px" height="26px" viewBox="0 0 26 26" version="1.1" xmlns="http://www.w3.org/2000/svg" xmlns:xlink="http://www.w3.org/1999/xlink">
    <title>amberflo_icon</title>
    <g id="Page-1" stroke="none" stroke-width="1" fill="none" fill-rule="evenodd">
        <g id="amberflo_icon">
            <path d="M13,8 C17.9705627,8 22,12.0294373 22,17 C22,21.9705627 17.9705627,26 13,26 C8.02943725,26 4,21.9705627 4,17 C4,12.0294373 8.02943725,8 13,8 Z M13,11.1090909 C9.74654075,11.1090909 7.10909091,13.7465407 7.10909091,17 C7.10909091,20.2534593 9.74654075,22.8909091 13,22.8909091 C16.2534593,22.8909091 18.8909091,20.2534593 18.8909091,17 C18.8909091,13.7465407 16.2534593,11.1090909 13,11.1090909 Z" id="Combined-Shape" fill="currentColor"></path>
            <path d="M12.5,0 C16.4355587,0 19.7806392,2.50738662 20.9998011,5.99932244 L17.5980598,5.99894475 C16.5801816,4.25457929 14.6782707,3.08105412 12.5,3.08105412 C10.3217293,3.08105412 8.41981843,4.25457929 7.40194015,5.99894475 L4.00019893,5.99932244 C5.21936079,2.50738662 8.56444129,0 12.5,0 Z" id="Combined-Shape" fill="currentColor"></path>
            <rect id="Rectangle" x="0" y="0" width="26" height="26"></rect>
        </g>
    </g>
</svg>