<svg width="110px" height="160px" viewBox="0 0 110 160" version="1.1" xmlns="http://www.w3.org/2000/svg" xmlns:xlink="http://www.w3.org/1999/xlink">
    <g id="Page-1" stroke="currentColor" stroke-width="1" fill="currentColor" fill-rule="evenodd">
        <g id="amberflo_icon" fill="#D8D8D8">
            <path d="M55,50 C85.3756612,50 110,74.6243388 110,105 C110,135.375661 85.3756612,160 55,160 C24.6243388,160 0,135.375661 0,105 C0,74.6243388 24.6243388,50 55,50 Z M55,69 C35.117749,69 19,85.117749 19,105 C19,124.882251 35.117749,141 55,141 C74.882251,141 91,124.882251 91,105 C91,85.117749 74.882251,69 55,69 Z" id="Combined-Shape"></path>
            <path d="M55,0 C79.0715948,0 99.5313707,15.464035 106.986882,36.9996594 L86.1840283,37.0003238 C79.9595048,26.2397206 68.3252161,19 55,19 C41.6747839,19 30.0404952,26.2397206 23.8159717,37.0003238 L3.01311785,36.9996594 C10.4686293,15.464035 30.9284052,0 55,0 Z" id="Combined-Shape"></path>
        </g>
    </g>
</svg>