<svg class="svg-icon" style="width: 1em; height: 1em;vertical-align: middle;fill: currentColor;overflow: hidden;" viewBox="0 0 1024 1024" version="1.1" xmlns="http://www.w3.org/2000/svg"><path d="M894.8 259.8c0 8.6-2.9 15.7-8.6 21.4L274.7 892.6c-5.7 5.7-12.8 8.6-21.4 8.6s-15.7-2.9-21.4-8.6l-94.1-94.1c-5.7-5.7-8.6-12.8-8.6-21.4s2.9-15.7 8.6-21.4l611.5-611.5c5.7-5.7 12.8-8.6 21.4-8.6 8.6 0 15.7 2.9 21.4 8.6l94.1 94.1c5.7 5.8 8.6 12.9 8.6 21.5z m-642.4-90.4l46.6 14.3-46.6 14.3-14.3 46.6-14.3-46.6-46.6-14.3 46.6-14.3 14.3-46.6 14.3 46.6z m166.4 77l93.2 28.5-93.2 28.5-28.5 93.2-28.5-93.2-93.2-28.5 93.2-28.5 28.5-93.2 28.5 93.2z m137.9-77l46.6 14.3-46.6 14.3-14.3 46.6-14.3-46.6-46.6-14.3 46.6-14.3 14.3-46.6 14.3 46.6z m125.5 229.7l139.3-139.3-50.9-50.9-139.3 139.3 50.9 50.9zM861 473.7l46.6 14.3-46.6 14.2-14.3 46.6-14.3-46.6-46.6-14.3 46.6-14.3 14.3-46.6 14.3 46.7z"  /></svg>