<svg width="24" height="24" viewBox="0 0 24 24" fill="none" xmlns="http://www.w3.org/2000/svg">
<path d="M21.9995 12.0082C21.9963 16.3106 19.2415 20.1287 15.1595 21.4882C15.0067 21.5353 14.8408 21.5095 14.7095 21.4182C14.5783 21.3227 14.5003 21.1705 14.4995 21.0082V18.3382C14.5211 17.6191 14.3484 16.9074 13.9995 16.2782C13.9467 16.1959 13.9467 16.0905 13.9995 16.0082C14.0401 15.9323 14.1144 15.8804 14.1995 15.8682C16.6395 15.6182 17.9995 14.6482 17.9995 12.0082C18.0583 10.7756 17.631 9.56907 16.8095 8.64821C16.9293 8.25922 16.9933 7.85519 16.9995 7.44821C16.9952 7.08333 16.9448 6.72045 16.8495 6.36821C16.7866 6.13333 16.561 5.98009 16.3195 6.00821C15.4033 6.13826 14.5504 6.55073 13.8795 7.18821C12.6377 6.94827 11.3614 6.94827 10.1195 7.18821C9.44867 6.55073 8.59576 6.13826 7.67952 6.00821C7.438 5.98009 7.2124 6.13333 7.14952 6.36821C7.05421 6.72045 7.00381 7.08333 6.99952 7.44821C7.00574 7.85519 7.06971 8.25922 7.18952 8.64821C6.368 9.56907 5.9407 10.7756 5.99952 12.0082C5.99952 14.7882 7.50952 15.7182 10.2795 15.9482C9.93566 16.3988 9.69962 16.9222 9.58952 17.4782C9.58952 17.4782 9.58952 17.5482 9.58952 17.5982C9.5847 17.6448 9.5847 17.6917 9.58952 17.7382C9.54791 18.0526 9.26524 18.2778 8.94952 18.2482C8.79897 18.2411 8.65198 18.2001 8.51952 18.1282C7.97473 17.7964 7.4938 17.3697 7.09952 16.8682C6.84831 16.5834 6.58122 16.3129 6.29952 16.0582C6.12053 15.9033 5.92221 15.7722 5.70952 15.6682C5.56047 15.5845 5.37856 15.5845 5.22952 15.6682C5.08644 15.76 4.9998 15.9182 4.99952 16.0882V16.1482C4.9998 16.3182 5.08644 16.4764 5.22952 16.5682C5.58849 16.8687 5.89882 17.2229 6.14952 17.6182C6.5729 18.2816 7.11135 18.8641 7.73952 19.3382C8.1534 19.6157 8.64126 19.762 9.13952 19.7582H9.49952V21.0082C9.49874 21.1705 9.42077 21.3227 9.28952 21.4182C9.15826 21.5095 8.9923 21.5353 8.83952 21.4882C3.99156 19.8735 1.14076 14.8637 2.22889 9.87112C3.31702 4.87854 7.99402 1.5094 13.0742 2.05854C18.1544 2.60768 22.0034 6.89843 21.9995 12.0082Z" fill="white"/>
</svg>
