<svg width="24" height="24" viewBox="0 0 24 24" fill="none" xmlns="http://www.w3.org/2000/svg">
<path d="M17.0643 6.87891C14.7878 6.87891 13.7695 8.12408 13.1994 8.99607V7.18082H8.9126C8.96886 8.38474 8.9126 20.002 8.9126 20.002H13.1994V12.8422C13.1994 12.4597 13.2276 12.0771 13.3401 11.8033C13.6495 11.0382 14.3546 10.245 15.5398 10.245C17.0925 10.245 17.7132 11.4208 17.7132 13.1441V20.002H22V12.651C22 8.71103 19.8847 6.87891 17.0643 6.87891Z" fill="white"/>
<path d="M6.53977 7.18066H2.25293V20.0018H6.53977V7.18066Z" fill="white"/>
<path d="M4.42471 1C2.95826 1 2 1.95826 2 3.21468C2 4.44485 2.93013 5.43124 4.37033 5.43124H4.39846C5.89304 5.43124 6.82504 4.44672 6.82504 3.21468C6.79504 1.95638 5.89116 1 4.42471 1Z" fill="white"/>
</svg>
