<svg width="24" height="24" viewBox="0 0 24 24" fill="none" xmlns="http://www.w3.org/2000/svg">
<path d="M19.661 7.27444C18.0754 4.70921 15.2373 3 12 3C7.02944 3 3 7.02944 3 12C3 16.9706 7.02944 21 12 21C16.9706 21 21 16.9706 21 12C21 11.7344 20.9885 11.4715 20.966 11.2118" stroke="#00B594" stroke-width="2"/>
<path d="M12.7071 14.2929L12 13.5858H12L12.7071 14.2929ZM11.2929 14.2929L10.5858 15H10.5858L11.2929 14.2929ZM21.6679 3.91789L12 13.5858L13.4142 15L23.0821 5.33211L21.6679 3.91789ZM12 13.5858L8.17586 9.76164L6.76164 11.1759L10.5858 15L12 13.5858ZM12 13.5858L12 13.5858L10.5858 15C11.3668 15.781 12.6332 15.781 13.4142 15L12 13.5858Z" fill="#00B594"/>
</svg>
