<svg width="24" height="24" viewBox="0 0 24 24" fill="none" xmlns="http://www.w3.org/2000/svg">
<path d="M12 7L12 13" stroke="#D1B000" stroke-width="2"/>
<circle cx="12" cy="15.5" r="1.5" transform="rotate(-180 12 15.5)" fill="#D1B000"/>
<path d="M2.40364 15.558L3.26833 16.0603L2.40364 15.558ZM21.5964 15.558L20.7317 16.0603L21.5964 15.558ZM14.5804 3.48068L15.4451 2.97836L14.5804 3.48068ZM9.41956 3.48067L10.2842 3.98298L9.41956 3.48067ZM13.7158 3.98299L20.7317 16.0603L22.461 15.0557L15.4451 2.97836L13.7158 3.98299ZM19.0159 19H4.98408V21H19.0159V19ZM3.26833 16.0603L10.2842 3.98298L8.55487 2.97836L1.53896 15.0557L3.26833 16.0603ZM4.98408 19C3.45062 19 2.51411 17.3586 3.26833 16.0603L1.53896 15.0557C-0.000556231 17.7058 1.93008 21 4.98408 21V19ZM20.7317 16.0603C21.4859 17.3586 20.5494 19 19.0159 19V21C22.0699 21 24.0006 17.7058 22.461 15.0557L20.7317 16.0603ZM15.4451 2.97836C13.9128 0.34055 10.0872 0.340542 8.55487 2.97836L10.2842 3.98298C11.0456 2.67234 12.9544 2.67234 13.7158 3.98299L15.4451 2.97836Z" fill="#D1B000"/>
</svg>
